<svg xmlns="http://www.w3.org/2000/svg" xmlns:xlink="http://www.w3.org/1999/xlink" aria-hidden="true" width="500" zoomAndPan="magnify" role="img" viewBox="0 0 375 374.999991" height="500" width="500" preserveAspectRatio="xMidYMid meet" version="1.0"><defs><g/><clipPath id="250944bbdb"><path d="M 131.25 131.25 L 243.75 131.25 L 243.75 243.75 L 131.25 243.75 Z M 131.25 131.25 " clip-rule="nonzero"/></clipPath><clipPath id="bc5d89c19e"><path d="M 148.5 131.25 L 226.5 131.25 C 231.074219 131.25 235.460938 133.066406 238.699219 136.300781 C 241.933594 139.539062 243.75 143.925781 243.75 148.5 L 243.75 226.5 C 243.75 231.074219 241.933594 235.460938 238.699219 238.699219 C 235.460938 241.933594 231.074219 243.75 226.5 243.75 L 148.5 243.75 C 143.925781 243.75 139.539062 241.933594 136.300781 238.699219 C 133.066406 235.460938 131.25 231.074219 131.25 226.5 L 131.25 148.5 C 131.25 143.925781 133.066406 139.539062 136.300781 136.300781 C 139.539062 133.066406 143.925781 131.25 148.5 131.25 Z M 148.5 131.25 " clip-rule="nonzero"/></clipPath></defs><g clip-path="url(#250944bbdb)"><g clip-path="url(#bc5d89c19e)"><path fill="#f06c9b" d="M 131.25 131.25 L 243.75 131.25 L 243.75 243.75 L 131.25 243.75 Z M 131.25 131.25 " fill-opacity="1" fill-rule="nonzero"/></g></g><g fill="#ffffff" fill-opacity="1"><g transform="translate(159.040073, 216.079421)"><g><path d="M 59.089844 -18.488281 C 56.402344 -11.179688 53.03125 -7.933594 50.09375 -7.933594 C 48.84375 -7.933594 48.035156 -8.746094 48.035156 -9.992188 C 48.035156 -10.554688 48.222656 -11.242188 48.472656 -11.992188 L 58.527344 -39.476562 C 59.027344 -40.789062 59.339844 -42.226562 59.339844 -43.972656 C 59.339844 -49.84375 55.03125 -54.21875 48.660156 -54.21875 C 44.910156 -54.21875 40.414062 -52.71875 37.476562 -49.65625 C 35.542969 -52.59375 33.667969 -54.21875 29.417969 -54.21875 C 25.421875 -54.21875 22.796875 -51.71875 22.550781 -51.40625 C 22.050781 -52.96875 20.300781 -54.21875 17.925781 -54.21875 C 16.117188 -54.21875 13.617188 -53.46875 12.742188 -51.03125 L -3.308594 -6.058594 C -3.558594 -5.433594 -3.558594 -4.871094 -3.558594 -4.308594 C -3.558594 -1.5625 -1.375 0 1.0625 0 C 3.1875 0 5.496094 -1.25 6.496094 -3.996094 L 18.550781 -37.601562 C 20.050781 -41.789062 22.363281 -43.972656 25.171875 -43.972656 C 28.421875 -43.972656 29.292969 -41.476562 27.546875 -36.601562 L 16.613281 -6.558594 C 16.300781 -5.683594 16.117188 -4.871094 16.117188 -4.183594 C 16.117188 -1.5 18.300781 0 20.675781 0 C 22.859375 0 25.171875 -1.25 26.171875 -4.058594 L 37.851562 -36.789062 C 39.351562 -41.039062 41.851562 -43.910156 44.910156 -43.910156 C 47.347656 -43.910156 48.96875 -41.789062 47.847656 -38.726562 L 39.101562 -14.554688 C 38.539062 -12.929688 38.226562 -11.179688 38.226562 -9.746094 C 38.226562 -3.558594 43.160156 0 49.21875 0 C 56.089844 0 62.648438 -4.496094 66.523438 -16.675781 C 66.648438 -17.175781 66.773438 -17.613281 66.773438 -18.050781 C 66.773438 -20.238281 64.898438 -21.488281 63.023438 -21.488281 C 61.402344 -21.488281 59.839844 -20.550781 59.089844 -18.488281 Z M 59.089844 -18.488281 "/></g></g></g></svg>

